{
  "accessors": [
    {
      "bufferView": 2,
      "componentType": 5126,
      "count": 875,
      "max": [
        0.8827444911003113,
        7.344614028930664,
        21.331872940063477
      ],
      "min": [
        -25.612464904785156,
        -13.198022842407227,
        -0.4496842622756958
      ],
      "type": "VEC3"
    },
    {
      "bufferView": 2,
      "byteOffset": 10500,
      "componentType": 5126,
      "count": 875,
      "max": [
        1.0,
        1.0,
        1.0
      ],
      "min": [
        -1.0,
        -1.0,
        -1.0
      ],
      "type": "VEC3"
    },
    {
      "bufferView": 1,
      "componentType": 5126,
      "count": 875,
      "max": [
        1.0,
        1.0
      ],
      "min": [
        0.0,
        0.0
      ],
      "type": "VEC2"
    },
    {
      "bufferView": 0,
      "componentType": 5125,
      "count": 2040,
      "type": "SCALAR"
    },
    {
      "bufferView": 2,
      "byteOffset": 21000,
      "componentType": 5126,
      "count": 220,
      "max": [
        0.28741249442100525,
        -13.041352272033691,
        18.358257293701172
      ],
      "min": [
        -3.3807992935180664,
        -13.404670715332031,
        1.5497618913650513
      ],
      "type": "VEC3"
    },
    {
      "bufferView": 2,
      "byteOffset": 23640,
      "componentType": 5126,
      "count": 220,
      "max": [
        0.9769195318222046,
        -0.18453581631183624,
        0.9737666845321655
      ],
      "min": [
        -0.9769193530082703,
        -1.0,
        -0.9737606644630432
      ],
      "type": "VEC3"
    },
    {
      "bufferView": 1,
      "byteOffset": 7000,
      "componentType": 5126,
      "count": 220,
      "max": [
        1.0,
        1.0
      ],
      "min": [
        1.0,
        1.0
      ],
      "type": "VEC2"
    },
    {
      "bufferView": 0,
      "byteOffset": 8160,
      "componentType": 5125,
      "count": 1104,
      "type": "SCALAR"
    },
    {
      "bufferView": 2,
      "byteOffset": 26280,
      "componentType": 5126,
      "count": 20,
      "max": [
        -3.272237539291382,
        -12.507631301879883,
        19.068626403808594
      ],
      "min": [
        -23.420684814453125,
        -14.715012550354004,
        3.457594633102417
      ],
      "type": "VEC3"
    },
    {
      "bufferView": 2,
      "byteOffset": 26520,
      "componentType": 5126,
      "count": 20,
      "max": [
        0.2674592137336731,
        -0.9243555068969727,
        0.2720893621444702
      ],
      "min": [
        -0.2665086090564728,
        -0.9990891218185425,
        -0.2648475170135498
      ],
      "type": "VEC3"
    },
    {
      "bufferView": 1,
      "byteOffset": 8760,
      "componentType": 5126,
      "count": 20,
      "max": [
        1.0,
        1.0
      ],
      "min": [
        1.0,
        1.0
      ],
      "type": "VEC2"
    },
    {
      "bufferView": 0,
      "byteOffset": 12576,
      "componentType": 5125,
      "count": 102,
      "type": "SCALAR"
    },
    {
      "bufferView": 2,
      "byteOffset": 26760,
      "componentType": 5126,
      "count": 575,
      "max": [
        19.760339736938477,
        15.220226287841797,
        8.798248291015625
      ],
      "min": [
        -15.07931900024414,
        -10.311979293823242,
        -1.2183379567431984e-06
      ],
      "type": "VEC3"
    },
    {
      "bufferView": 2,
      "byteOffset": 33660,
      "componentType": 5126,
      "count": 575,
      "max": [
        1.0,
        1.0,
        1.0
      ],
      "min": [
        -1.0,
        -1.0,
        -1.0
      ],
      "type": "VEC3"
    },
    {
      "bufferView": 1,
      "byteOffset": 8920,
      "componentType": 5126,
      "count": 575,
      "max": [
        1.0,
        1.0
      ],
      "min": [
        0.0,
        0.0
      ],
      "type": "VEC2"
    },
    {
      "bufferView": 0,
      "byteOffset": 12984,
      "componentType": 5125,
      "count": 1167,
      "type": "SCALAR"
    },
    {
      "bufferView": 2,
      "byteOffset": 40560,
      "componentType": 5126,
      "count": 154,
      "max": [
        18.034313201904297,
        -9.310230255126953,
        7.987271308898926
      ],
      "min": [
        -14.019043922424316,
        -10.230165481567383,
        0.47260719537734985
      ],
      "type": "VEC3"
    },
    {
      "bufferView": 2,
      "byteOffset": 42408,
      "componentType": 5126,
      "count": 154,
      "max": [
        1.0,
        1.4142111695036874e-06,
        1.0
      ],
      "min": [
        -1.0,
        -1.0,
        -1.0
      ],
      "type": "VEC3"
    },
    {
      "bufferView": 1,
      "byteOffset": 13520,
      "componentType": 5126,
      "count": 154,
      "max": [
        1.0,
        0.800000011920929
      ],
      "min": [
        0.0,
        0.0
      ],
      "type": "VEC2"
    },
    {
      "bufferView": 0,
      "byteOffset": 17652,
      "componentType": 5125,
      "count": 417,
      "type": "SCALAR"
    },
    {
      "bufferView": 2,
      "byteOffset": 44256,
      "componentType": 5126,
      "count": 3075,
      "max": [
        23.11834144592285,
        6.537483215332031,
        1.2079726457595825
      ],
      "min": [
        -11.874887466430664,
        -6.537483215332031,
        -1.717991828918457
      ],
      "type": "VEC3"
    },
    {
      "bufferView": 2,
      "byteOffset": 81156,
      "componentType": 5126,
      "count": 3075,
      "max": [
        1.0,
        1.0,
        0.993469774723053
      ],
      "min": [
        -1.0,
        -1.0,
        -1.0
      ],
      "type": "VEC3"
    },
    {
      "bufferView": 1,
      "byteOffset": 14752,
      "componentType": 5126,
      "count": 3075,
      "max": [
        1.0,
        1.0
      ],
      "min": [
        0.0,
        0.0
      ],
      "type": "VEC2"
    },
    {
      "bufferView": 0,
      "byteOffset": 19320,
      "componentType": 5125,
      "count": 3402,
      "type": "SCALAR"
    },
    {
      "bufferView": 2,
      "byteOffset": 118056,
      "componentType": 5126,
      "count": 381,
      "max": [
        22.398916244506836,
        5.056730270385742,
        0.7289095520973206
      ],
      "min": [
        -11.155461311340332,
        -5.353463172912598,
        -0.4666670560836792
      ],
      "type": "VEC3"
    },
    {
      "bufferView": 2,
      "byteOffset": 122628,
      "componentType": 5126,
      "count": 381,
      "max": [
        3.995000952272676e-06,
        -0.11401718109846115,
        0.9934788346290588
      ],
      "min": [
        -3.5961247704108246e-06,
        -0.11410943418741226,
        0.9934682250022888
      ],
      "type": "VEC3"
    },
    {
      "bufferView": 1,
      "byteOffset": 39352,
      "componentType": 5126,
      "count": 381,
      "max": [
        1.0,
        1.0
      ],
      "min": [
        0.0,
        0.0
      ],
      "type": "VEC2"
    },
    {
      "bufferView": 0,
      "byteOffset": 32928,
      "componentType": 5125,
      "count": 738,
      "type": "SCALAR"
    },
    {
      "bufferView": 2,
      "byteOffset": 127200,
      "componentType": 5126,
      "count": 65532,
      "max": [
        0.09003233909606934,
        29.84257698059082,
        0.07208812236785889
      ],
      "min": [
        -0.22821640968322754,
        0.45707157254219055,
        -2.66546630859375
      ],
      "type": "VEC3"
    },
    {
      "bufferView": 2,
      "byteOffset": 913584,
      "componentType": 5126,
      "count": 65532,
      "max": [
        0.9999967217445374,
        0.9970033168792725,
        0.9980424642562866
      ],
      "min": [
        -0.9999968409538269,
        -0.36226436495780945,
        -0.9980482459068298
      ],
      "type": "VEC3"
    },
    {
      "bufferView": 1,
      "byteOffset": 42400,
      "componentType": 5126,
      "count": 65532,
      "max": [
        1.0277777910232544,
        0.9999999403953552
      ],
      "min": [
        0.0833333432674408,
        0.7037341594696045
      ],
      "type": "VEC2"
    },
    {
      "bufferView": 0,
      "byteOffset": 35880,
      "componentType": 5125,
      "count": 376887,
      "type": "SCALAR"
    },
    {
      "bufferView": 2,
      "byteOffset": 1699968,
      "componentType": 5126,
      "count": 65532,
      "max": [
        0.17844176292419434,
        31.320690155029297,
        -2.4458444118499756
      ],
      "min": [
        -0.1395704746246338,
        29.72184181213379,
        -4.178027153015137
      ],
      "type": "VEC3"
    },
    {
      "bufferView": 2,
      "byteOffset": 2486352,
      "componentType": 5126,
      "count": 65532,
      "max": [
        0.9999991059303284,
        0.9999715685844421,
        0.9999406933784485
      ],
      "min": [
        -0.9999990463256836,
        -0.9999657273292542,
        -0.9999498724937439
      ],
      "type": "VEC3"
    },
    {
      "bufferView": 1,
      "byteOffset": 566656,
      "componentType": 5126,
      "count": 65532,
      "max": [
        1.0277777910232544,
        1.0000001192092896
      ],
      "min": [
        0.0833333432674408,
        0.999997079372406
      ],
      "type": "VEC2"
    },
    {
      "bufferView": 0,
      "byteOffset": 1543428,
      "componentType": 5125,
      "count": 388365,
      "type": "SCALAR"
    },
    {
      "bufferView": 2,
      "byteOffset": 3272736,
      "componentType": 5126,
      "count": 62664,
      "max": [
        0.17634987831115723,
        31.320730209350586,
        0.14195729792118073
      ],
      "min": [
        -0.22558903694152832,
        0.04019033908843994,
        -3.8039145469665527
      ],
      "type": "VEC3"
    },
    {
      "bufferView": 2,
      "byteOffset": 4024704,
      "componentType": 5126,
      "count": 62664,
      "max": [
        0.9999991059303284,
        0.9998920559883118,
        0.9980437159538269
      ],
      "min": [
        -0.9999990463256836,
        -0.9989913105964661,
        -0.9999979734420776
      ],
      "type": "VEC3"
    },
    {
      "bufferView": 1,
      "byteOffset": 1090912,
      "componentType": 5126,
      "count": 62664,
      "max": [
        1.0277777910232544,
        1.0
      ],
      "min": [
        0.007596135139465332,
        0.0
      ],
      "type": "VEC2"
    },
    {
      "bufferView": 0,
      "byteOffset": 3096888,
      "componentType": 5125,
      "count": 354492,
      "type": "SCALAR"
    }
  ],
  "asset": {
    "extras": {
      "author": "zozolka (https://sketchfab.com/awokadokiwi)",
      "license": "CC-BY-4.0 (http://creativecommons.org/licenses/by/4.0/)",
      "source": "https://sketchfab.com/3d-models/pc-dcb77781b3d347bab22d451dab0f0bd7",
      "title": "pc"
    },
    "generator": "Sketchfab-12.67.0",
    "version": "2.0"
  },
  "bufferViews": [
    {
      "buffer": 0,
      "byteLength": 4514856,
      "name": "floatBufferViews",
      "target": 34963
    },
    {
      "buffer": 0,
      "byteLength": 1592224,
      "byteOffset": 4514856,
      "byteStride": 8,
      "name": "floatBufferViews",
      "target": 34962
    },
    {
      "buffer": 0,
      "byteLength": 4776672,
      "byteOffset": 6107080,
      "byteStride": 12,
      "name": "floatBufferViews",
      "target": 34962
    }
  ],
  "buffers": [
    {
      "byteLength": 10883752,
      "uri": "scene.bin"
    }
  ],
  "materials": [
    {
      "doubleSided": true,
      "name": "03_-_Default",
      "pbrMetallicRoughness": {
        "metallicFactor": 0.0,
        "roughnessFactor": 0.8929713596
      }
    },
    {
      "doubleSided": true,
      "name": "08_-_Default",
      "pbrMetallicRoughness": {
        "baseColorFactor": [
          0.027451,
          0.027451,
          0.027451,
          1.0
        ],
        "metallicFactor": 0.0,
        "roughnessFactor": 0.8929713596
      }
    },
    {
      "doubleSided": true,
      "name": "07_-_Default",
      "pbrMetallicRoughness": {
        "baseColorFactor": [
          0.0196078,
          0.0196078,
          0.0196078,
          1.0
        ],
        "metallicFactor": 0.0,
        "roughnessFactor": 0.8929713596
      }
    }
  ],
  "meshes": [
    {
      "name": "Box002_03 - Default_0",
      "primitives": [
        {
          "attributes": {
            "NORMAL": 1,
            "POSITION": 0,
            "TEXCOORD_0": 2
          },
          "indices": 3,
          "material": 0,
          "mode": 4
        }
      ]
    },
    {
      "name": "Box002_08 - Default_0",
      "primitives": [
        {
          "attributes": {
            "NORMAL": 5,
            "POSITION": 4,
            "TEXCOORD_0": 6
          },
          "indices": 7,
          "material": 1,
          "mode": 4
        }
      ]
    },
    {
      "name": "Box002_07 - Default_0",
      "primitives": [
        {
          "attributes": {
            "NORMAL": 9,
            "POSITION": 8,
            "TEXCOORD_0": 10
          },
          "indices": 11,
          "material": 2,
          "mode": 4
        }
      ]
    },
    {
      "name": "Box003_03 - Default_0",
      "primitives": [
        {
          "attributes": {
            "NORMAL": 13,
            "POSITION": 12,
            "TEXCOORD_0": 14
          },
          "indices": 15,
          "material": 0,
          "mode": 4
        }
      ]
    },
    {
      "name": "Box003_08 - Default_0",
      "primitives": [
        {
          "attributes": {
            "NORMAL": 17,
            "POSITION": 16,
            "TEXCOORD_0": 18
          },
          "indices": 19,
          "material": 1,
          "mode": 4
        }
      ]
    },
    {
      "name": "Box004_03 - Default_0",
      "primitives": [
        {
          "attributes": {
            "NORMAL": 21,
            "POSITION": 20,
            "TEXCOORD_0": 22
          },
          "indices": 23,
          "material": 0,
          "mode": 4
        }
      ]
    },
    {
      "name": "Box004_08 - Default_0",
      "primitives": [
        {
          "attributes": {
            "NORMAL": 25,
            "POSITION": 24,
            "TEXCOORD_0": 26
          },
          "indices": 27,
          "material": 1,
          "mode": 4
        }
      ]
    },
    {
      "name": "Cylinder001_08 - Default_0",
      "primitives": [
        {
          "attributes": {
            "NORMAL": 29,
            "POSITION": 28,
            "TEXCOORD_0": 30
          },
          "indices": 31,
          "material": 1,
          "mode": 4
        }
      ]
    },
    {
      "name": "Cylinder001_08 - Default_0",
      "primitives": [
        {
          "attributes": {
            "NORMAL": 33,
            "POSITION": 32,
            "TEXCOORD_0": 34
          },
          "indices": 35,
          "material": 1,
          "mode": 4
        }
      ]
    },
    {
      "name": "Cylinder001_08 - Default_0",
      "primitives": [
        {
          "attributes": {
            "NORMAL": 37,
            "POSITION": 36,
            "TEXCOORD_0": 38
          },
          "indices": 39,
          "material": 1,
          "mode": 4
        }
      ]
    }
  ],
  "nodes": [
    {
      "children": [
        1
      ],
      "matrix": [
        1.0,
        0.0,
        0.0,
        0.0,
        0.0,
        2.220446049250313e-16,
        -1.0,
        0.0,
        0.0,
        1.0,
        2.220446049250313e-16,
        0.0,
        0.0,
        0.0,
        0.0,
        1.0
      ],
      "name": "Sketchfab_model"
    },
    {
      "children": [
        2
      ],
      "matrix": [
        1.0,
        0.0,
        0.0,
        0.0,
        0.0,
        0.0,
        1.0,
        0.0,
        0.0,
        -1.0,
        0.0,
        0.0,
        0.0,
        0.0,
        0.0,
        1.0
      ],
      "name": "pc.fbx"
    },
    {
      "children": [
        3,
        7,
        10,
        13
      ],
      "name": "RootNode"
    },
    {
      "children": [
        4,
        5,
        6
      ],
      "matrix": [
        1.0,
        0.0,
        0.0,
        0.0,
        0.0,
        2.220446049250313e-16,
        -1.0,
        0.0,
        0.0,
        1.0,
        2.220446049250313e-16,
        0.0,
        12.323457717895508,
        -7.8296356201171875,
        -50.16974639892578,
        1.0
      ],
      "name": "Box002"
    },
    {
      "mesh": 0,
      "name": "Box002_03 - Default_0"
    },
    {
      "mesh": 1,
      "name": "Box002_08 - Default_0"
    },
    {
      "mesh": 2,
      "name": "Box002_07 - Default_0"
    },
    {
      "children": [
        8,
        9
      ],
      "matrix": [
        1.0,
        0.0,
        0.0,
        0.0,
        0.0,
        2.220446049250313e-16,
        -1.0,
        0.0,
        0.0,
        1.0,
        2.220446049250313e-16,
        0.0,
        0.0,
        -17.2255859375,
        -46.0546875,
        1.0
      ],
      "name": "Box003"
    },
    {
      "mesh": 3,
      "name": "Box003_03 - Default_0"
    },
    {
      "mesh": 4,
      "name": "Box003_08 - Default_0"
    },
    {
      "children": [
        11,
        12
      ],
      "matrix": [
        1.0,
        0.0,
        0.0,
        0.0,
        0.0,
        2.220446049250313e-16,
        -1.0,
        0.0,
        0.0,
        1.0,
        2.220446049250313e-16,
        0.0,
        -3.4192495346069336,
        -15.927955627441406,
        -26.988990783691406,
        1.0
      ],
      "name": "Box004"
    },
    {
      "mesh": 5,
      "name": "Box004_03 - Default_0"
    },
    {
      "mesh": 6,
      "name": "Box004_08 - Default_0"
    },
    {
      "children": [
        14,
        15,
        16
      ],
      "matrix": [
        0.029755027243730137,
        -0.998172375315331,
        -0.05259798010451506,
        0.0,
        -0.9990679787186695,
        -0.02805286289510207,
        -0.03280928528593707,
        0.0,
        0.03127379457370404,
        0.053525192464532856,
        -0.9980766521388007,
        0.0,
        17.2806453704834,
        -16.333900451660156,
        -36.37411880493164,
        1.0
      ],
      "name": "Cylinder001"
    },
    {
      "mesh": 7,
      "name": "Cylinder001_08 - Default_0"
    },
    {
      "mesh": 8,
      "name": "Cylinder001_08 - Default_0"
    },
    {
      "mesh": 9,
      "name": "Cylinder001_08 - Default_0"
    }
  ],
  "scene": 0,
  "scenes": [
    {
      "name": "Sketchfab_Scene",
      "nodes": [
        0
      ]
    }
  ]
}
