<svg width="80" height="38" viewBox="0 0 80 38" fill="none" xmlns="http://www.w3.org/2000/svg">
                        <mask id="mask0" mask-type="alpha" maskUnits="userSpaceOnUse" x="0" y="9" width="27" height="29">
                            <path d="M0 9.69189H26.9459V37.3388H0V9.69189Z" fill="#fff"></path>
                        </mask>
                        <g mask="url(#mask0)">
                            <path fill-rule="evenodd" clip-rule="evenodd" d="M13.473 15.4122C9.11743 15.4122 5.57479 19.0477 5.57479 23.5157C5.57479 27.9838 9.11743 31.6193 13.473 31.6193C17.8278 31.6193 21.3712 27.9838 21.3712 23.5157C21.3712 19.0477 17.8278 15.4122 13.473 15.4122ZM13.473 37.3388C6.04386 37.3388 -0.000488281 31.138 -0.000488281 23.5157C-0.000488281 15.8934 6.04386 9.69189 13.473 9.69189C20.9021 9.69189 26.9457 15.8934 26.9457 23.5157C26.9457 31.138 20.9021 37.3388 13.473 37.3388Z" fill="#fff"></path>
                        </g>
                        <mask id="mask1" mask-type="alpha" maskUnits="userSpaceOnUse" x="57" y="0" width="23" height="38">
                            <path d="M57.1799 0H80.0001V37.3389H57.1799V0Z" fill="#fff"></path>
                        </mask>
                        <g mask="url(#mask1)">
                            <path fill-rule="evenodd" clip-rule="evenodd" d="M76.06 29.4138C74.6456 30.7796 72.7432 31.6189 70.6527 31.6189C66.2978 31.6189 62.7038 27.9834 62.7038 23.5153V0L57.1799 3.17726V23.5153C57.1799 31.1376 63.2243 37.3391 70.6527 37.3391C74.2807 37.3391 77.5758 35.8575 80.0001 33.4563L76.06 29.4138Z" fill="#fff"></path>
                        </g>
                        <path fill-rule="evenodd" clip-rule="evenodd" d="M70.6521 9.70081H51.2428L44.4638 27.5018L39.1158 13.3668H34.6944L29.371 27.4364L26.1476 18.8286L26.1469 18.8271C24.2713 13.5056 19.2983 9.69189 13.4733 9.69189C6.67464 9.69189 1.03567 14.8848 0.12793 21.6077L5.57508 23.5157C5.57508 19.0469 9.11772 15.4122 13.4733 15.4122C16.7235 15.4122 19.5212 17.4375 20.7316 20.3221C20.7352 20.331 20.741 20.3385 20.7446 20.3474L20.8771 20.695L27.1617 37.3388H31.5491L36.9043 23.1837L42.261 37.3388H46.6484L54.9418 15.4174L54.9382 15.4122H70.6521V9.70081Z" fill="#fff"></path>
                        <mask id="mask2" mask-type="alpha" maskUnits="userSpaceOnUse" x="0" y="0" width="6" height="27">
                            <path d="M0 0H5.57882V26.5905H0V0Z" fill="#fff"></path>
                        </mask>
                        <g mask="url(#mask2)">
                            <path fill-rule="evenodd" clip-rule="evenodd" d="M5.5789 0H0V23.516C0 23.516 1.06048 27.4145 2.9896 26.4319C4.91873 25.4493 5.57528 23.516 5.57528 23.516L5.5789 0Z" fill="#1E1D28"></path>
                        </g>
                    </svg>