{
  "accessors": [
    {
      "bufferView": 0,
      "byteOffset": 0,
      "componentType": 5123,
      "count": 618,
      "type": "SCALAR",
      "max": [511],
      "min": [0]
    },
    {
      "bufferView": 1,
      "byteOffset": 0,
      "componentType": 5126,
      "count": 512,
      "type": "VEC3",
      "max": [0.05285270884633064, 1.6517789363861084, 0.1243664100766182],
      "min": [0.01098908856511116, 1.6099793910980225, 0.10353441536426544],
      "name": "POSITION"
    },
    {
      "bufferView": 1,
      "byteOffset": 12,
      "componentType": 5126,
      "count": 512,
      "type": "VEC3",
      "max": [0.940593421459198, 0.9512249827384949, 1.0000042915344238],
      "min": [-0.9471175670623779, -0.9485121965408325, -1.0000044107437134],
      "name": "NORMAL"
    },
    {
      "bufferView": 1,
      "byteOffset": 24,
      "componentType": 5126,
      "count": 512,
      "type": "VEC2",
      "max": [0.9646214246749878, 0.9818061590194702],
      "min": [0.019903719425201416, 0.020990610122680664],
      "name": "TEXCOORD_0"
    },
    {
      "bufferView": 1,
      "byteOffset": 32,
      "componentType": 5126,
      "count": 512,
      "type": "VEC4",
      "max": [1.0000044107437134, 0.7122213840484619, 0.9483450055122375, 0],
      "min": [-0.6210345029830933, -0.6752814054489136, -0.9486373066902161, 0],
      "name": "TANGENT"
    },
    {
      "bufferView": 0,
      "byteOffset": 1236,
      "componentType": 5123,
      "count": 618,
      "type": "SCALAR",
      "max": [511],
      "min": [0]
    },
    {
      "bufferView": 2,
      "byteOffset": 0,
      "componentType": 5126,
      "count": 512,
      "type": "VEC3",
      "max": [-0.011286502704024315, 1.6518229246139526, 0.12436643242835999],
      "min": [-0.05298370495438576, 1.609937310218811, 0.10353446006774902],
      "name": "POSITION"
    },
    {
      "bufferView": 2,
      "byteOffset": 12,
      "componentType": 5126,
      "count": 512,
      "type": "VEC3",
      "max": [0.9310588836669922, 0.9478599429130554, 1.0000042915344238],
      "min": [-0.9491503834724426, -0.9364675879478455, -1.0000044107437134],
      "name": "NORMAL"
    },
    {
      "bufferView": 2,
      "byteOffset": 24,
      "componentType": 5126,
      "count": 512,
      "type": "VEC2",
      "max": [0.9585750699043274, 0.966354489326477],
      "min": [0.006885886192321777, 0.022762417793273926],
      "name": "TEXCOORD_0"
    },
    {
      "bufferView": 2,
      "byteOffset": 32,
      "componentType": 5126,
      "count": 512,
      "type": "VEC4",
      "max": [1.0000044107437134, 0.6738854050636292, 0.9491469860076904, 0],
      "min": [-0.9298434257507324, -0.9169004559516907, -0.9487378001213074, 0],
      "name": "TANGENT"
    },
    {
      "bufferView": 0,
      "byteOffset": 2472,
      "componentType": 5123,
      "count": 12282,
      "type": "SCALAR",
      "max": [9713],
      "min": [0]
    },
    {
      "bufferView": 3,
      "byteOffset": 0,
      "componentType": 5126,
      "count": 9714,
      "type": "VEC3",
      "max": [0.09380598366260529, 1.7430979013442993, 0.1488882601261139],
      "min": [-0.09381923079490662, 1.4321601390838623, -0.055653300136327744],
      "name": "POSITION"
    },
    {
      "bufferView": 3,
      "byteOffset": 12,
      "componentType": 5126,
      "count": 9714,
      "type": "VEC3",
      "max": [0.9992210865020752, 0.9998700022697449, 0.999984860420227],
      "min": [-0.999217689037323, -0.9999942779541016, -0.9999960660934448],
      "name": "NORMAL"
    },
    {
      "bufferView": 3,
      "byteOffset": 24,
      "componentType": 5126,
      "count": 9714,
      "type": "VEC2",
      "max": [0.9943000078201294, 0.9807000160217285],
      "min": [0.004999999888241291, 0.004350006580352783],
      "name": "TEXCOORD_0"
    },
    {
      "bufferView": 3,
      "byteOffset": 32,
      "componentType": 5126,
      "count": 9714,
      "type": "VEC4",
      "max": [1.0000044107437134, 0.9725969433784485, 0.9979702234268188, 0],
      "min": [-0.9999586343765259, -0.9178011417388916, -0.9996803998947144, 0],
      "name": "TANGENT"
    },
    {
      "bufferView": 0,
      "byteOffset": 27036,
      "componentType": 5123,
      "count": 300,
      "type": "SCALAR",
      "max": [242],
      "min": [0]
    },
    {
      "bufferView": 4,
      "byteOffset": 0,
      "componentType": 5126,
      "count": 243,
      "type": "VEC3",
      "max": [0.02734910137951374, 1.5839699506759644, 0.1328074336051941],
      "min": [-0.02734910137951374, 1.5470936298370361, 0.06714960932731628],
      "name": "POSITION"
    },
    {
      "bufferView": 4,
      "byteOffset": 12,
      "componentType": 5126,
      "count": 243,
      "type": "VEC3",
      "max": [0.9971848130226135, 0.8770291805267334, 0.9974771738052368],
      "min": [-0.9971848130226135, -0.9858387112617493, -0.7650244832038879],
      "name": "NORMAL"
    },
    {
      "bufferView": 4,
      "byteOffset": 24,
      "componentType": 5126,
      "count": 243,
      "type": "VEC2",
      "max": [0.9808249473571777, 0.983213484287262],
      "min": [0.051069796085357666, 0.02829587459564209],
      "name": "TEXCOORD_0"
    },
    {
      "bufferView": 4,
      "byteOffset": 32,
      "componentType": 5126,
      "count": 243,
      "type": "VEC4",
      "max": [0.9999337792396545, 0.9603409767150879, 0.8488315343856812, 0],
      "min": [-0.9999337792396545, -0.8457254767417908, -0.9858386516571045, 0],
      "name": "TANGENT"
    },
    {
      "bufferView": 0,
      "byteOffset": 27636,
      "componentType": 5123,
      "count": 4782,
      "type": "SCALAR",
      "max": [3844],
      "min": [0]
    },
    {
      "bufferView": 5,
      "byteOffset": 0,
      "componentType": 5126,
      "count": 3845,
      "type": "VEC3",
      "max": [0.4639587104320526, 1.0503947734832764, 0.17666155099868774],
      "min": [-0.4639582335948944, 0.06345456093549728, -0.08302264660596848],
      "name": "POSITION"
    },
    {
      "bufferView": 5,
      "byteOffset": 12,
      "componentType": 5126,
      "count": 3845,
      "type": "VEC2",
      "max": [0.9857609868049622, 0.9892200231552124],
      "min": [0.018730999901890755, 0.08261322975158691],
      "name": "TEXCOORD_0"
    },
    {
      "bufferView": 5,
      "byteOffset": 20,
      "componentType": 5126,
      "count": 3845,
      "type": "VEC3",
      "max": [0.999686598777771, 0.9121010899543762, 0.9980723857879639],
      "min": [-0.9996859431266785, -0.9776854515075684, -0.995815634727478],
      "name": "NORMAL"
    },
    {
      "bufferView": 5,
      "byteOffset": 32,
      "componentType": 5126,
      "count": 3845,
      "type": "VEC4",
      "max": [0.9980847835540771, 0.9998539686203003, 0.9982593059539795, 0],
      "min": [-0.999284565448761, -0.9875087738037109, -0.9985131025314331, 0],
      "name": "TANGENT"
    },
    {
      "bufferView": 0,
      "byteOffset": 37200,
      "componentType": 5123,
      "count": 3021,
      "type": "SCALAR",
      "max": [2462],
      "min": [0]
    },
    {
      "bufferView": 6,
      "byteOffset": 0,
      "componentType": 5126,
      "count": 2463,
      "type": "VEC3",
      "max": [0.19666661322116852, 1.0463807582855225, 0.15743447840213776],
      "min": [-0.19597934186458588, 0.1886749267578125, -0.1034865453839302],
      "name": "POSITION"
    },
    {
      "bufferView": 6,
      "byteOffset": 12,
      "componentType": 5126,
      "count": 2463,
      "type": "VEC2",
      "max": [0.9872713088989258, 0.9939693808555603],
      "min": [0.015709467232227325, 0.09439772367477417],
      "name": "TEXCOORD_0"
    },
    {
      "bufferView": 6,
      "byteOffset": 20,
      "componentType": 5126,
      "count": 2463,
      "type": "VEC3",
      "max": [0.9999425411224365, 0.8231285810470581, 1.0000026226043701],
      "min": [-0.9999424815177917, -0.9999620914459229, -0.9997023344039917],
      "name": "NORMAL"
    },
    {
      "bufferView": 6,
      "byteOffset": 32,
      "componentType": 5126,
      "count": 2463,
      "type": "VEC4",
      "max": [0.9999789595603943, 0.6360369324684143, 0.999910295009613, 0],
      "min": [-0.9941632151603699, -0.5899708867073059, -0.9999216794967651, 0],
      "name": "TANGENT"
    },
    {
      "bufferView": 0,
      "byteOffset": 43244,
      "componentType": 5123,
      "count": 3966,
      "type": "SCALAR",
      "max": [3177],
      "min": [0]
    },
    {
      "bufferView": 7,
      "byteOffset": 0,
      "componentType": 5126,
      "count": 3178,
      "type": "VEC3",
      "max": [0.2322225272655487, 0.16004352271556854, 0.21900545060634613],
      "min": [
        -0.23222286999225616, 0.0009708052966743708, -0.10365217179059982
      ],
      "name": "POSITION"
    },
    {
      "bufferView": 7,
      "byteOffset": 12,
      "componentType": 5126,
      "count": 3178,
      "type": "VEC2",
      "max": [0.9763879776000977, 0.9864959716796875],
      "min": [0.009003999643027782, 0.012317001819610596],
      "name": "TEXCOORD_0"
    },
    {
      "bufferView": 7,
      "byteOffset": 20,
      "componentType": 5126,
      "count": 3178,
      "type": "VEC3",
      "max": [0.9998122453689575, 0.9974512457847595, 0.9977529048919678],
      "min": [-0.9998095631599426, -1.0000044107437134, -0.9976370930671692],
      "name": "NORMAL"
    },
    {
      "bufferView": 7,
      "byteOffset": 32,
      "componentType": 5126,
      "count": 3178,
      "type": "VEC4",
      "max": [0.9995270371437073, 0.8955737352371216, 0.997586727142334, 0],
      "min": [-0.9989593625068665, -0.9999600648880005, -0.9229521751403809, 0],
      "name": "TANGENT"
    },
    {
      "bufferView": 0,
      "byteOffset": 51176,
      "componentType": 5123,
      "count": 7722,
      "type": "SCALAR",
      "max": [6160],
      "min": [0]
    },
    {
      "bufferView": 8,
      "byteOffset": 0,
      "componentType": 5126,
      "count": 6161,
      "type": "VEC3",
      "max": [0.4312102794647217, 1.5528391599655151, 0.18579770624637604],
      "min": [-0.4314279854297638, 0.9928605556488037, -0.1568111628293991],
      "name": "POSITION"
    },
    {
      "bufferView": 8,
      "byteOffset": 12,
      "componentType": 5126,
      "count": 6161,
      "type": "VEC2",
      "max": [0.9807490706443787, 0.9795655608177185],
      "min": [0.021974602714180946, 0.02858835458755493],
      "name": "TEXCOORD_0"
    },
    {
      "bufferView": 8,
      "byteOffset": 20,
      "componentType": 5126,
      "count": 6161,
      "type": "VEC3",
      "max": [0.9995404481887817, 0.9992038011550903, 0.9994055032730103],
      "min": [-0.9945647120475769, -0.9997770190238953, -0.9996402859687805],
      "name": "NORMAL"
    },
    {
      "bufferView": 8,
      "byteOffset": 32,
      "componentType": 5126,
      "count": 6161,
      "type": "VEC4",
      "max": [0.999903678894043, 0.907911479473114, 0.9966777563095093, 0],
      "min": [-1.000002384185791, -0.808570921421051, -0.9995999932289124, 0],
      "name": "TANGENT"
    },
    {
      "bufferView": 0,
      "byteOffset": 66620,
      "componentType": 5123,
      "count": 8931,
      "type": "SCALAR",
      "max": [7284],
      "min": [0]
    },
    {
      "bufferView": 9,
      "byteOffset": 0,
      "componentType": 5126,
      "count": 7285,
      "type": "VEC3",
      "max": [0.10500003397464752, 1.7700238227844238, 0.13729891180992126],
      "min": [-0.11894503980875015, 1.3812837600708008, -0.11924944818019867],
      "name": "POSITION"
    },
    {
      "bufferView": 9,
      "byteOffset": 12,
      "componentType": 5126,
      "count": 7285,
      "type": "VEC3",
      "max": [0.9995819926261902, 0.9948803782463074, 0.996910810470581],
      "min": [-0.999858558177948, -0.9930999279022217, -0.9994352459907532],
      "name": "NORMAL"
    },
    {
      "bufferView": 9,
      "byteOffset": 24,
      "componentType": 5126,
      "count": 7285,
      "type": "VEC2",
      "max": [0.9996466040611267, 0.9951984882354736],
      "min": [0.0021478808484971523, 0.01721322536468506],
      "name": "TEXCOORD_0"
    },
    {
      "bufferView": 9,
      "byteOffset": 32,
      "componentType": 5126,
      "count": 7285,
      "type": "VEC4",
      "max": [0.9997806549072266, 0.9991998672485352, 0.9983488321304321, 0],
      "min": [-0.9987825155258179, -0.999261200428009, -0.9985404014587402, 0],
      "name": "TANGENT"
    }
  ],
  "asset": { "generator": "Aspose.3D 23.4.0", "version": "2.0" },
  "buffers": [
    {
      "uri": "data:application/octet-stream;base64,",
      "byteLength": 2112044
    }
  ],
  "bufferViews": [
    { "buffer": 0, "byteOffset": 0, "byteLength": 84484, "target": 34963 },
    {
      "buffer": 0,
      "byteOffset": 84488,
      "byteLength": 29664,
      "byteStride": 48,
      "target": 34962
    },
    {
      "buffer": 0,
      "byteOffset": 114156,
      "byteLength": 29664,
      "byteStride": 48,
      "target": 34962
    },
    {
      "buffer": 0,
      "byteOffset": 143824,
      "byteLength": 589536,
      "byteStride": 48,
      "target": 34962
    },
    {
      "buffer": 0,
      "byteOffset": 733364,
      "byteLength": 14400,
      "byteStride": 48,
      "target": 34962
    },
    {
      "buffer": 0,
      "byteOffset": 747768,
      "byteLength": 229536,
      "byteStride": 48,
      "target": 34962
    },
    {
      "buffer": 0,
      "byteOffset": 977308,
      "byteLength": 145008,
      "byteStride": 48,
      "target": 34962
    },
    {
      "buffer": 0,
      "byteOffset": 1122320,
      "byteLength": 190368,
      "byteStride": 48,
      "target": 34962
    },
    {
      "buffer": 0,
      "byteOffset": 1312692,
      "byteLength": 370656,
      "byteStride": 48,
      "target": 34962
    },
    {
      "buffer": 0,
      "byteOffset": 1683352,
      "byteLength": 428688,
      "byteStride": 48,
      "target": 34962
    }
  ],
  "images": [
    {
      "uri": "data:image/jpeg;base64,"
    },
    {
      "uri": "data:image/jpeg;base64,"
    },
    {
      "uri": "data:image/jpeg;base64,"
    },
    {
      "uri": "data:image/jpeg;base64,"
    },
    {
      "uri": "data:image/jpeg;base64,"
    },
    {
      "uri": "data:image/jpeg;base64,"
    },
    {
      "uri": "data:image/jpeg;base64,"
    },
    {
      "uri": "data:image/jpeg;base64,"
    },
    {
      "uri": "data:image/jpeg;base64,"
    },
    {
      "uri": "data:image/jpeg;base64,"
    },
    {
      "uri": "data:image/jpeg;base64,"
    },
    {
      "uri": "data:image/jpeg;base64,"
    },
    {
      "uri": "data:image/jpeg;base64,"
    },
    {
      "uri": "data:image/jpeg;base64,"
    },
    {
      "uri": "data:image/jpeg;base64,"
    },
    {
      "uri": "data:image/jpeg;base64,"
    }
  ],
  "materials": [
    {
      "name": "Wolf3D_Eye",
      "pbrMetallicRoughness": {
        "baseColorFactor": [1, 1, 1, 1],
        "baseColorTexture": { "index": 0, "texCoord": 0 },
        "metallicFactor": 0,
        "roughnessFactor": 1
      },
      "emissiveFactor": [0, 0, 0],
      "alphaMode": "OPAQUE",
      "doubleSided": true
    },
    {
      "name": "Wolf3D_Eye",
      "pbrMetallicRoughness": {
        "baseColorFactor": [1, 1, 1, 1],
        "baseColorTexture": { "index": 0, "texCoord": 0 },
        "metallicFactor": 0,
        "roughnessFactor": 1
      },
      "emissiveFactor": [0, 0, 0],
      "alphaMode": "OPAQUE",
      "doubleSided": true
    },
    {
      "name": "Wolf3D_Skin",
      "pbrMetallicRoughness": {
        "baseColorFactor": [1, 1, 1, 1],
        "baseColorTexture": { "index": 1, "texCoord": 0 },
        "metallicFactor": 0,
        "roughnessFactor": 0.699999988079071
      },
      "emissiveFactor": [0, 0, 0],
      "alphaMode": "OPAQUE",
      "doubleSided": true
    },
    {
      "name": "Wolf3D_Teeth",
      "pbrMetallicRoughness": {
        "baseColorFactor": [1, 1, 1, 1],
        "baseColorTexture": { "index": 2, "texCoord": 0 },
        "metallicFactor": 0,
        "roughnessFactor": 1
      },
      "emissiveFactor": [0, 0, 0],
      "alphaMode": "OPAQUE",
      "doubleSided": true
    },
    {
      "name": "Wolf3D_Body",
      "pbrMetallicRoughness": {
        "baseColorFactor": [1, 1, 1, 1],
        "baseColorTexture": { "index": 4, "texCoord": 0 },
        "metallicFactor": 0,
        "roughnessFactor": 0.5527864098548889
      },
      "normalTexture": { "index": 3, "texCoord": 0, "scale": 1 },
      "emissiveFactor": [0, 0, 0],
      "alphaMode": "OPAQUE",
      "doubleSided": false
    },
    {
      "name": "Wolf3D_Outfit_Bottom",
      "pbrMetallicRoughness": {
        "baseColorFactor": [1, 1, 1, 1],
        "baseColorTexture": { "index": 6, "texCoord": 0 },
        "metallicFactor": 0,
        "roughnessFactor": 1,
        "metallicRoughnessTexture": { "index": 7, "texCoord": 0 }
      },
      "normalTexture": { "index": 5, "texCoord": 0, "scale": 1 },
      "emissiveFactor": [0, 0, 0],
      "alphaMode": "OPAQUE",
      "doubleSided": false
    },
    {
      "name": "Wolf3D_Outfit_Footwear",
      "pbrMetallicRoughness": {
        "baseColorFactor": [1, 1, 1, 1],
        "baseColorTexture": { "index": 9, "texCoord": 0 },
        "metallicFactor": 0,
        "roughnessFactor": 1,
        "metallicRoughnessTexture": { "index": 10, "texCoord": 0 }
      },
      "normalTexture": { "index": 8, "texCoord": 0, "scale": 1 },
      "emissiveFactor": [0, 0, 0],
      "alphaMode": "OPAQUE",
      "doubleSided": false
    },
    {
      "name": "Wolf3D_Outfit_Top",
      "pbrMetallicRoughness": {
        "baseColorFactor": [1, 1, 1, 1],
        "baseColorTexture": { "index": 12, "texCoord": 0 },
        "metallicFactor": 1,
        "roughnessFactor": 1,
        "metallicRoughnessTexture": { "index": 13, "texCoord": 0 }
      },
      "normalTexture": { "index": 11, "texCoord": 0, "scale": 1 },
      "emissiveFactor": [0, 0, 0],
      "alphaMode": "OPAQUE",
      "doubleSided": false
    },
    {
      "name": "Wolf3D_Hair",
      "pbrMetallicRoughness": {
        "baseColorFactor": [1, 1, 1, 1],
        "baseColorTexture": { "index": 15, "texCoord": 0 },
        "metallicFactor": 0,
        "roughnessFactor": 0.8449422121047974
      },
      "normalTexture": { "index": 14, "texCoord": 0, "scale": 1 },
      "emissiveFactor": [0, 0, 0],
      "alphaMode": "OPAQUE",
      "doubleSided": false
    }
  ],
  "meshes": [
    {
      "primitives": [
        {
          "attributes": {
            "POSITION": 1,
            "NORMAL": 2,
            "TEXCOORD_0": 3,
            "TANGENT": 4
          },
          "indices": 0,
          "material": 0,
          "mode": 4
        }
      ]
    },
    {
      "primitives": [
        {
          "attributes": {
            "POSITION": 6,
            "NORMAL": 7,
            "TEXCOORD_0": 8,
            "TANGENT": 9
          },
          "indices": 5,
          "material": 1,
          "mode": 4
        }
      ]
    },
    {
      "primitives": [
        {
          "attributes": {
            "POSITION": 11,
            "NORMAL": 12,
            "TEXCOORD_0": 13,
            "TANGENT": 14
          },
          "indices": 10,
          "material": 2,
          "mode": 4
        }
      ]
    },
    {
      "primitives": [
        {
          "attributes": {
            "POSITION": 16,
            "NORMAL": 17,
            "TEXCOORD_0": 18,
            "TANGENT": 19
          },
          "indices": 15,
          "material": 3,
          "mode": 4
        }
      ]
    },
    {
      "primitives": [
        {
          "attributes": {
            "POSITION": 21,
            "TEXCOORD_0": 22,
            "NORMAL": 23,
            "TANGENT": 24
          },
          "indices": 20,
          "material": 4,
          "mode": 4
        }
      ]
    },
    {
      "primitives": [
        {
          "attributes": {
            "POSITION": 26,
            "TEXCOORD_0": 27,
            "NORMAL": 28,
            "TANGENT": 29
          },
          "indices": 25,
          "material": 5,
          "mode": 4
        }
      ]
    },
    {
      "primitives": [
        {
          "attributes": {
            "POSITION": 31,
            "TEXCOORD_0": 32,
            "NORMAL": 33,
            "TANGENT": 34
          },
          "indices": 30,
          "material": 6,
          "mode": 4
        }
      ]
    },
    {
      "primitives": [
        {
          "attributes": {
            "POSITION": 36,
            "TEXCOORD_0": 37,
            "NORMAL": 38,
            "TANGENT": 39
          },
          "indices": 35,
          "material": 7,
          "mode": 4
        }
      ]
    },
    {
      "primitives": [
        {
          "attributes": {
            "POSITION": 41,
            "NORMAL": 42,
            "TEXCOORD_0": 43,
            "TANGENT": 44
          },
          "indices": 40,
          "material": 8,
          "mode": 4
        }
      ]
    }
  ],
  "nodes": [
    { "mesh": 0, "name": "EyeLeft" },
    { "mesh": 1, "name": "EyeRight" },
    { "mesh": 2, "name": "Wolf3D_Head" },
    { "mesh": 3, "name": "Wolf3D_Teeth" },
    { "mesh": 4, "name": "Wolf3D_Body" },
    { "mesh": 5, "name": "Wolf3D_Outfit_Bottom" },
    { "mesh": 6, "name": "Wolf3D_Outfit_Footwear" },
    { "mesh": 7, "name": "Wolf3D_Outfit_Top" },
    { "mesh": 8, "name": "Wolf3D_Hair" },
    { "children": [0, 1, 2, 3, 4, 5, 6, 7, 8], "name": "Armature" }
  ],
  "samplers": [
    { "magFilter": 9728, "minFilter": 9728, "wrapS": 10497, "wrapT": 10497 },
    { "magFilter": 9728, "minFilter": 9728, "wrapS": 10497, "wrapT": 10497 },
    { "magFilter": 9729, "minFilter": 9987, "wrapS": 10497, "wrapT": 10497 },
    { "magFilter": 9729, "minFilter": 9987, "wrapS": 33071, "wrapT": 33071 },
    { "magFilter": 9728, "minFilter": 9728, "wrapS": 10497, "wrapT": 10497 },
    { "magFilter": 9729, "minFilter": 9987, "wrapS": 10497, "wrapT": 10497 },
    { "magFilter": 9729, "minFilter": 9987, "wrapS": 10497, "wrapT": 10497 },
    { "magFilter": 9729, "minFilter": 9987, "wrapS": 10497, "wrapT": 10497 },
    { "magFilter": 9729, "minFilter": 9987, "wrapS": 10497, "wrapT": 10497 },
    { "magFilter": 9729, "minFilter": 9987, "wrapS": 10497, "wrapT": 10497 },
    { "magFilter": 9729, "minFilter": 9987, "wrapS": 10497, "wrapT": 10497 },
    { "magFilter": 9729, "minFilter": 9987, "wrapS": 10497, "wrapT": 10497 },
    { "magFilter": 9729, "minFilter": 9987, "wrapS": 10497, "wrapT": 10497 },
    { "magFilter": 9729, "minFilter": 9987, "wrapS": 10497, "wrapT": 10497 },
    { "magFilter": 9729, "minFilter": 9987, "wrapS": 10497, "wrapT": 10497 },
    { "magFilter": 9728, "minFilter": 9728, "wrapS": 10497, "wrapT": 10497 }
  ],
  "scene": 0,
  "scenes": [{ "nodes": [9] }],
  "textures": [
    { "sampler": 0, "source": 0, "name": "" },
    { "sampler": 1, "source": 1, "name": "" },
    { "sampler": 2, "source": 2, "name": "" },
    { "sampler": 3, "source": 3, "name": "" },
    { "sampler": 4, "source": 4, "name": "" },
    { "sampler": 5, "source": 5, "name": "" },
    { "sampler": 6, "source": 6, "name": "" },
    { "sampler": 7, "source": 7, "name": "" },
    { "sampler": 8, "source": 8, "name": "" },
    { "sampler": 9, "source": 9, "name": "" },
    { "sampler": 10, "source": 10, "name": "" },
    { "sampler": 11, "source": 11, "name": "" },
    { "sampler": 12, "source": 12, "name": "" },
    { "sampler": 13, "source": 13, "name": "" },
    { "sampler": 14, "source": 14, "name": "" },
    { "sampler": 15, "source": 15, "name": "" }
  ]
}
