{
  "accessors": [
    {
      "bufferView": 2,
      "componentType": 5126,
      "count": 548,
      "max": [
        188.81773376464844,
        188.15145874023438,
        206.66810607910156
      ],
      "min": [
        -190.13621520996094,
        -189.5671844482422,
        80.3917236328125
      ],
      "type": "VEC3"
    },
    {
      "bufferView": 2,
      "byteOffset": 6576,
      "componentType": 5126,
      "count": 548,
      "max": [
        1.0,
        1.0,
        1.0
      ],
      "min": [
        -1.0,
        -1.0,
        -1.0
      ],
      "type": "VEC3"
    },
    {
      "bufferView": 1,
      "componentType": 5126,
      "count": 548,
      "max": [
        1.0,
        1.0
      ],
      "min": [
        0.0,
        0.0
      ],
      "type": "VEC2"
    },
    {
      "bufferView": 0,
      "componentType": 5125,
      "count": 1632,
      "type": "SCALAR"
    },
    {
      "bufferView": 2,
      "byteOffset": 13152,
      "componentType": 5126,
      "count": 20308,
      "max": [
        114.84660339355469,
        114.84660339355469,
        262.7554626464844
      ],
      "min": [
        -114.84660339355469,
        -114.84660339355469,
        33.062259674072266
      ],
      "type": "VEC3"
    },
    {
      "bufferView": 2,
      "byteOffset": 256848,
      "componentType": 5126,
      "count": 20308,
      "max": [
        1.0,
        1.0,
        1.0
      ],
      "min": [
        -1.0,
        -1.0,
        -1.0
      ],
      "type": "VEC3"
    },
    {
      "bufferView": 1,
      "byteOffset": 4384,
      "componentType": 5126,
      "count": 20308,
      "max": [
        1.0,
        1.0
      ],
      "min": [
        0.0,
        0.0
      ],
      "type": "VEC2"
    },
    {
      "bufferView": 0,
      "byteOffset": 6528,
      "componentType": 5125,
      "count": 118800,
      "type": "SCALAR"
    }
  ],
  "asset": {
    "extras": {
      "author": "Flowtuts (https://sketchfab.com/MTFT)",
      "license": "CC-BY-4.0 (http://creativecommons.org/licenses/by/4.0/)",
      "source": "https://sketchfab.com/3d-models/3d-planet-57844b50bfc84219b7d1aaac3484ecf7",
      "title": "3D Planet"
    },
    "generator": "Sketchfab-12.68.0",
    "version": "2.0"
  },
  "bufferViews": [
    {
      "buffer": 0,
      "byteLength": 481728,
      "name": "floatBufferViews",
      "target": 34963
    },
    {
      "buffer": 0,
      "byteLength": 166848,
      "byteOffset": 481728,
      "byteStride": 8,
      "name": "floatBufferViews",
      "target": 34962
    },
    {
      "buffer": 0,
      "byteLength": 500544,
      "byteOffset": 648576,
      "byteStride": 12,
      "name": "floatBufferViews",
      "target": 34962
    }
  ],
  "buffers": [
    {
      "byteLength": 1149120,
      "uri": "scene.bin"
    }
  ],
  "materials": [
    {
      "doubleSided": true,
      "emissiveFactor": [
        0.078125,
        0.078125,
        0.078125
      ],
      "name": "Scene_-_Root",
      "pbrMetallicRoughness": {
        "metallicFactor": 0.2822027439,
        "roughnessFactor": 0.7029344512
      }
    }
  ],
  "meshes": [
    {
      "name": "Object_0",
      "primitives": [
        {
          "attributes": {
            "NORMAL": 1,
            "POSITION": 0,
            "TEXCOORD_0": 2
          },
          "indices": 3,
          "material": 0,
          "mode": 4
        }
      ]
    },
    {
      "name": "Object_1",
      "primitives": [
        {
          "attributes": {
            "NORMAL": 5,
            "POSITION": 4,
            "TEXCOORD_0": 6
          },
          "indices": 7,
          "material": 0,
          "mode": 4
        }
      ]
    }
  ],
  "nodes": [
    {
      "children": [
        1
      ],
      "matrix": [
        1.0,
        0.0,
        0.0,
        0.0,
        0.0,
        2.220446049250313e-16,
        -1.0,
        0.0,
        0.0,
        1.0,
        2.220446049250313e-16,
        0.0,
        0.0,
        0.0,
        0.0,
        1.0
      ],
      "name": "Sketchfab_model"
    },
    {
      "children": [
        2,
        3
      ],
      "name": "3D Planet test.obj.cleaner.materialmerger.gles"
    },
    {
      "mesh": 0,
      "name": "Object_2"
    },
    {
      "mesh": 1,
      "name": "Object_3"
    }
  ],
  "scene": 0,
  "scenes": [
    {
      "name": "Sketchfab_Scene",
      "nodes": [
        0
      ]
    }
  ]
}
